<svg width="28" height="29" viewBox="0 0 28 29" fill="none" xmlns="http://www.w3.org/2000/svg">
<path d="M19.425 24.7082C19.4133 24.7082 19.39 24.7082 19.3783 24.7082C18.9 24.7082 18.5033 24.3116 18.515 23.8216C18.515 23.3432 18.9117 22.9582 19.39 22.9582C19.4017 22.9582 19.425 22.9582 19.4367 22.9582C20.7667 22.9582 22.0383 22.4682 23.0183 21.5582C24.8267 19.9716 24.955 17.7082 24.465 16.1099C23.975 14.5116 22.6217 12.7032 20.2533 12.3999C19.8683 12.3532 19.565 12.0616 19.495 11.6766C19.0283 8.88823 17.5233 6.96323 15.26 6.26323C12.9033 5.5399 10.185 6.25156 8.48167 8.03656C6.82501 9.7749 6.44001 12.1899 7.39667 14.8616C7.56001 15.3166 7.32667 15.8182 6.87167 15.9816C6.41667 16.1449 5.91501 15.9116 5.75167 15.4566C4.57334 12.1782 5.11001 9.03989 7.22167 6.83489C9.38001 4.58323 12.81 3.6849 15.785 4.60656C18.5033 5.44656 20.4283 7.68656 21.1167 10.7899C23.4967 11.3266 25.3983 13.1232 26.1567 15.6082C26.985 18.3149 26.2267 21.0916 24.2083 22.8649C22.8783 24.0549 21.1867 24.7082 19.425 24.7082Z" fill="#5B3896"/>
<path d="M6.49843 24.7083C6.47509 24.7083 6.45176 24.7083 6.44009 24.7083C3.08009 24.475 1.55176 21.8383 1.55176 19.4933C1.55176 17.1483 3.08009 14.5233 6.44009 14.2783C7.30342 14.2667 8.15509 14.465 8.90176 14.8383C9.33343 15.06 9.49676 15.585 9.28676 16.0167C9.06509 16.4483 8.54009 16.6117 8.10842 16.4017C7.61842 16.145 7.05842 16.04 6.52176 16.0283C4.31676 16.1917 3.31342 17.8833 3.31342 19.4933C3.31342 21.1033 4.31676 22.795 6.58009 22.9583C7.05842 22.9933 7.42009 23.4133 7.38509 23.8917C7.33842 24.3583 6.95342 24.7083 6.49843 24.7083Z" fill="#5B3896"/>
<path opacity="0.4" d="M18.4567 12.9133C18.1417 12.9133 17.8267 12.7383 17.675 12.4233C17.4533 11.9917 17.6283 11.4667 18.0717 11.245C18.7833 10.8833 19.5883 10.685 20.3817 10.6733C20.8367 10.6967 21.2683 11.0467 21.2683 11.5367C21.28 12.015 20.895 12.4233 20.405 12.4233C19.8683 12.435 19.3317 12.5633 18.8417 12.8083C18.725 12.89 18.585 12.9133 18.4567 12.9133Z" fill="#5B3896"/>
<path opacity="0.4" d="M15.1315 24.7085H10.4648C9.98651 24.7085 9.58984 24.3118 9.58984 23.8335C9.58984 23.3552 9.98651 22.9585 10.4648 22.9585H15.1315C15.6098 22.9585 16.0065 23.3552 16.0065 23.8335C16.0065 24.3118 15.6215 24.7085 15.1315 24.7085Z" fill="#5B3896"/>
<path opacity="0.4" d="M12.7983 27.0417C12.32 27.0417 11.9233 26.645 11.9233 26.1667V21.5C11.9233 21.0217 12.32 20.625 12.7983 20.625C13.2767 20.625 13.6733 21.0217 13.6733 21.5V26.1667C13.6733 26.645 13.2883 27.0417 12.7983 27.0417Z" fill="#5B3896"/>
</svg>
