<svg width="12" height="12" viewBox="0 0 12 12" fill="none" xmlns="http://www.w3.org/2000/svg">
<path d="M1.416 6.076L1.418 6.084C1.54539 6.68823 1.81305 7.25405 2.19938 7.7358C2.5857 8.21755 3.07987 8.60173 3.642 8.85733L6 9.92933V8.66667H7.33333C8.21739 8.66667 9.06524 8.31548 9.69036 7.69036C10.3155 7.06523 10.6667 6.21739 10.6667 5.33333V4.66667C10.6667 3.78261 10.3155 2.93477 9.69036 2.30964C9.06524 1.68452 8.21739 1.33333 7.33333 1.33333H4.66667C3.78261 1.33333 2.93477 1.68452 2.30964 2.30964C1.68452 2.93477 1.33333 3.78261 1.33333 4.66667V5.33333C1.33333 5.58667 1.36133 5.832 1.414 6.06667L1.416 6.076ZM7.33333 12L3.09067 10.0713C2.33824 9.72935 1.67675 9.21528 1.15957 8.5706C0.642389 7.92591 0.284003 7.16868 0.113334 6.36C0.0378128 6.023 -0.000196235 5.67869 7.61823e-07 5.33333V4.66667C7.61823e-07 3.42899 0.491666 2.242 1.36684 1.36683C2.24201 0.491665 3.42899 0 4.66667 0H7.33333C8.57101 0 9.75799 0.491665 10.6332 1.36683C11.5083 2.242 12 3.42899 12 4.66667V5.33333C12 6.57101 11.5083 7.758 10.6332 8.63317C9.75799 9.50834 8.57101 10 7.33333 10V12Z" fill="#878282"/>
</svg>
