<svg width="28" height="29" viewBox="0 0 28 29" fill="none" xmlns="http://www.w3.org/2000/svg">
<path d="M19.425 24.7082C19.4133 24.7082 19.39 24.7082 19.3783 24.7082C18.9 24.7082 18.5033 24.3116 18.515 23.8216C18.515 23.3432 18.9117 22.9582 19.39 22.9582C19.4017 22.9582 19.425 22.9582 19.4367 22.9582C20.7667 22.9582 22.0383 22.4682 23.0183 21.5582C24.8267 19.9716 24.955 17.7082 24.465 16.1099C23.975 14.5116 22.6217 12.7032 20.2533 12.3999C19.8683 12.3532 19.565 12.0616 19.495 11.6766C19.0283 8.88823 17.5233 6.96323 15.26 6.26323C12.9033 5.5399 10.185 6.25156 8.48167 8.03656C6.82501 9.7749 6.44001 12.1899 7.39667 14.8616C7.56001 15.3166 7.32667 15.8182 6.87167 15.9816C6.41667 16.1449 5.91501 15.9116 5.75167 15.4566C4.57334 12.1782 5.11001 9.03989 7.22167 6.83489C9.38001 4.58323 12.81 3.6849 15.785 4.60656C18.5033 5.44656 20.4283 7.68656 21.1167 10.7899C23.4967 11.3266 25.3983 13.1232 26.1567 15.6082C26.985 18.3149 26.2267 21.0916 24.2083 22.8649C22.8783 24.0549 21.1867 24.7082 19.425 24.7082Z" fill="#292D32"/>
<path d="M6.49836 24.7083C6.47503 24.7083 6.4517 24.7083 6.44003 24.7083C3.08003 24.475 1.5517 21.8383 1.5517 19.4933C1.5517 17.1483 3.08003 14.5233 6.44003 14.2783C7.30336 14.2667 8.15503 14.465 8.9017 14.8383C9.33336 15.06 9.4967 15.585 9.2867 16.0167C9.06503 16.4483 8.54003 16.6117 8.10836 16.4017C7.61836 16.145 7.05836 16.04 6.5217 16.0283C4.3167 16.1917 3.31336 17.8833 3.31336 19.4933C3.31336 21.1033 4.3167 22.795 6.58003 22.9583C7.05836 22.9933 7.42003 23.4133 7.38503 23.8917C7.33836 24.3583 6.95336 24.7083 6.49836 24.7083Z" fill="#292D32"/>
<path opacity="0.4" d="M18.4567 12.9133C18.1417 12.9133 17.8267 12.7383 17.675 12.4233C17.4533 11.9917 17.6283 11.4667 18.0717 11.245C18.7833 10.8833 19.5883 10.685 20.3817 10.6733C20.8367 10.6967 21.2683 11.0467 21.2683 11.5367C21.28 12.015 20.895 12.4233 20.405 12.4233C19.8683 12.435 19.3317 12.5633 18.8417 12.8083C18.725 12.89 18.585 12.9133 18.4567 12.9133Z" fill="#130F26"/>
<path opacity="0.4" d="M15.1317 24.7083H10.465C9.98669 24.7083 9.59003 24.3116 9.59003 23.8333C9.59003 23.3549 9.98669 22.9583 10.465 22.9583H15.1317C15.61 22.9583 16.0067 23.3549 16.0067 23.8333C16.0067 24.3116 15.6217 24.7083 15.1317 24.7083Z" fill="#130F26"/>
<path opacity="0.4" d="M12.7983 27.0417C12.32 27.0417 11.9233 26.645 11.9233 26.1667V21.5C11.9233 21.0217 12.32 20.625 12.7983 20.625C13.2767 20.625 13.6733 21.0217 13.6733 21.5V26.1667C13.6733 26.645 13.2883 27.0417 12.7983 27.0417Z" fill="#130F26"/>
</svg>
