<svg width="15" height="15" viewBox="0 0 15 15" fill="none" xmlns="http://www.w3.org/2000/svg">
<path d="M9.58333 7.29167C9.875 7.29167 10.1214 7.19083 10.3225 6.98917C10.5242 6.78806 10.625 6.54167 10.625 6.25C10.625 5.95833 10.5242 5.71194 10.3225 5.51083C10.1214 5.30917 9.875 5.20833 9.58333 5.20833C9.29167 5.20833 9.04528 5.30917 8.84417 5.51083C8.6425 5.71194 8.54167 5.95833 8.54167 6.25C8.54167 6.54167 8.6425 6.78806 8.84417 6.98917C9.04528 7.19083 9.29167 7.29167 9.58333 7.29167ZM5.41667 7.29167C5.70833 7.29167 5.95472 7.19083 6.15583 6.98917C6.3575 6.78806 6.45833 6.54167 6.45833 6.25C6.45833 5.95833 6.3575 5.71194 6.15583 5.51083C5.95472 5.30917 5.70833 5.20833 5.41667 5.20833C5.125 5.20833 4.87861 5.30917 4.6775 5.51083C4.47583 5.71194 4.375 5.95833 4.375 6.25C4.375 6.54167 4.47583 6.78806 4.6775 6.98917C4.87861 7.19083 5.125 7.29167 5.41667 7.29167ZM7.5 11.6667C8.33333 11.6667 9.08694 11.4375 9.76083 10.9792C10.4342 10.5208 10.9306 9.91667 11.25 9.16667H3.75C4.06944 9.91667 4.56611 10.5208 5.24 10.9792C5.91333 11.4375 6.66667 11.6667 7.5 11.6667ZM7.5 15C6.45833 15 5.48278 14.8022 4.57333 14.4067C3.66333 14.0106 2.87167 13.4756 2.19833 12.8017C1.52444 12.1283 0.989444 11.3367 0.593333 10.4267C0.197778 9.51722 0 8.54167 0 7.5C0 6.45833 0.197778 5.4825 0.593333 4.5725C0.989444 3.66306 1.52444 2.87139 2.19833 2.1975C2.87167 1.52417 3.66333 0.989444 4.57333 0.593333C5.48278 0.197778 6.45833 0 7.5 0C8.54167 0 9.5175 0.197778 10.4275 0.593333C11.3369 0.989444 12.1286 1.52417 12.8025 2.1975C13.4758 2.87139 14.0106 3.66306 14.4067 4.5725C14.8022 5.4825 15 6.45833 15 7.5C15 8.54167 14.8022 9.51722 14.4067 10.4267C14.0106 11.3367 13.4758 12.1283 12.8025 12.8017C12.1286 13.4756 11.3369 14.0106 10.4275 14.4067C9.5175 14.8022 8.54167 15 7.5 15ZM7.83333 4.58333C8.06944 4.58333 8.33694 4.53806 8.63583 4.4475C8.93417 4.3575 9.08333 4.15278 9.08333 3.83333C9.08333 3.66667 9.02778 3.52083 8.91667 3.39583C8.80556 3.27083 8.66667 3.20833 8.5 3.20833C8.38889 3.20833 8.28111 3.22917 8.17667 3.27083C8.07278 3.3125 7.95833 3.33333 7.83333 3.33333C7.54167 3.33333 7.295 3.2325 7.09333 3.03083C6.89222 2.82972 6.79167 2.58333 6.79167 2.29167C6.79167 2.13889 6.81611 2.01028 6.865 1.90583C6.91333 1.80194 6.98611 1.72917 7.08333 1.6875C6.81944 1.71528 6.5625 1.75 6.3125 1.79167C6.0625 1.83333 5.81944 1.90278 5.58333 2C5.56944 2.04167 5.55917 2.09028 5.5525 2.14583C5.54528 2.20139 5.54167 2.25 5.54167 2.29167C5.54167 2.91667 5.7675 3.455 6.21917 3.90667C6.67028 4.35778 7.20833 4.58333 7.83333 4.58333Z" fill="#878282"/>
</svg>
