<svg width="15" height="15" viewBox="0 0 15 15" fill="none" xmlns="http://www.w3.org/2000/svg">
<path d="M5.625 13.75H9.375C12.5 13.75 13.75 12.5 13.75 9.375V5.625C13.75 2.5 12.5 1.25 9.375 1.25H5.625C2.5 1.25 1.25 2.5 1.25 5.625V9.375C1.25 12.5 2.5 13.75 5.625 13.75Z" stroke="#292D32" stroke-width="1.5" stroke-linecap="round" stroke-linejoin="round"/>
<path d="M5.625 6.25C6.31536 6.25 6.875 5.69036 6.875 5C6.875 4.30964 6.31536 3.75 5.625 3.75C4.93464 3.75 4.375 4.30964 4.375 5C4.375 5.69036 4.93464 6.25 5.625 6.25Z" stroke="#292D32" stroke-width="1.5" stroke-linecap="round" stroke-linejoin="round"/>
<path d="M1.66895 11.8438L4.7502 9.7751C5.24395 9.44385 5.95645 9.48135 6.4002 9.8626L6.60645 10.0438C7.09395 10.4626 7.88145 10.4626 8.36895 10.0438L10.9689 7.8126C11.4564 7.39385 12.2439 7.39385 12.7314 7.8126L13.7502 8.6876" stroke="#292D32" stroke-width="1.5" stroke-linecap="round" stroke-linejoin="round"/>
</svg>
