<svg width="28" height="29" viewBox="0 0 28 29" fill="none" xmlns="http://www.w3.org/2000/svg">
<path opacity="0.4" fill-rule="evenodd" clip-rule="evenodd" d="M14.7499 10.2151C14.7499 9.80087 14.4142 9.46509 13.9999 9.46509C13.5857 9.46509 13.2499 9.80087 13.2499 10.2151V13.7389H9.72217C9.30795 13.7389 8.97217 14.0747 8.97217 14.4889C8.97217 14.9031 9.30795 15.2389 9.72217 15.2389H13.2499V18.7625C13.2499 19.1767 13.5857 19.5125 13.9999 19.5125C14.4142 19.5125 14.7499 19.1767 14.7499 18.7625V15.2389H18.2777C18.6919 15.2389 19.0277 14.9031 19.0277 14.4889C19.0277 14.0747 18.6919 13.7389 18.2777 13.7389H14.7499V10.2151Z" fill="#130F26"/>
<path fill-rule="evenodd" clip-rule="evenodd" d="M19.4666 2.83325H8.53331C4.7222 2.83325 2.33331 5.53068 2.33331 9.34927V19.6506C2.33331 23.4692 4.71109 26.1666 8.53331 26.1666H19.4666C23.2889 26.1666 25.6666 23.4692 25.6666 19.6506V9.34927C25.6666 5.53068 23.2889 2.83325 19.4666 2.83325Z" stroke="#130F26" stroke-width="1.5" stroke-linecap="round" stroke-linejoin="round"/>
</svg>
