<svg width="12" height="12" viewBox="0 0 12 12" fill="none" xmlns="http://www.w3.org/2000/svg">
<path d="M7.5 11.375H4.5C1.785 11.375 0.625 10.215 0.625 7.5V4.5C0.625 1.785 1.785 0.625 4.5 0.625H7.5C10.215 0.625 11.375 1.785 11.375 4.5V7.5C11.375 10.215 10.215 11.375 7.5 11.375ZM4.5 1.375C2.195 1.375 1.375 2.195 1.375 4.5V7.5C1.375 9.805 2.195 10.625 4.5 10.625H7.5C9.805 10.625 10.625 9.805 10.625 7.5V4.5C10.625 2.195 9.805 1.375 7.5 1.375H4.5Z" fill="#292D32"/>
<path d="M6.00002 7.45503C5.90502 7.45503 5.81002 7.42003 5.73502 7.34503L3.97002 5.58003C3.82502 5.43503 3.82502 5.19503 3.97002 5.05003C4.11502 4.90503 4.35502 4.90503 4.50002 5.05003L6.00002 6.55003L7.50002 5.05003C7.64502 4.90503 7.88502 4.90503 8.03002 5.05003C8.17502 5.19503 8.17502 5.43503 8.03002 5.58003L6.26502 7.34503C6.19002 7.42003 6.09502 7.45503 6.00002 7.45503Z" fill="#292D32"/>
</svg>
