<svg width="41" height="40" viewBox="0 0 41 40" fill="none" xmlns="http://www.w3.org/2000/svg">
<rect width="41" height="40" rx="20" fill="#5B3896"/>
<path d="M15.9843 30.3111C15.1206 30.3111 14.3006 30.1 13.579 29.6777C11.8734 28.6777 10.9331 26.6444 10.9331 23.9666V16.0444C10.9331 13.3555 11.8734 11.3333 13.579 10.3333C15.2846 9.33329 17.4822 9.52218 19.7782 10.8666L26.524 14.8222C28.8091 16.1666 30.0774 18.0111 30.0774 20.0111C30.0774 22.0111 28.82 23.8555 26.524 25.2L19.7782 29.1555C18.4552 29.9222 17.1651 30.3111 15.9843 30.3111ZM15.9843 11.3555C15.3939 11.3555 14.8691 11.4888 14.399 11.7666C13.2182 12.4555 12.5731 13.9777 12.5731 16.0444V23.9555C12.5731 26.0222 13.2182 27.5333 14.399 28.2333C15.5798 28.9333 17.1979 28.7333 18.9582 27.7L25.704 23.7444C27.4643 22.7111 28.4374 21.3888 28.4374 20C28.4374 18.6111 27.4643 17.2888 25.704 16.2555L18.9582 12.3C17.8867 11.6777 16.8808 11.3555 15.9843 11.3555Z" fill="white"/>
</svg>
