<svg width="22" height="22" viewBox="0 0 22 22" fill="none" xmlns="http://www.w3.org/2000/svg">
<path d="M14.21 21.19C14 21.19 13.79 21.16 13.58 21.11C12.96 20.94 12.44 20.55 12.11 20L11.99 19.8C11.4 18.78 10.59 18.78 10 19.8L9.89 19.99C9.56 20.55 9.04 20.95 8.42 21.11C7.79 21.28 7.14 21.19 6.59 20.86L4.87 19.87C4.26 19.52 3.82 18.95 3.63 18.26C3.45 17.57 3.54 16.86 3.89 16.25C4.18 15.74 4.26 15.28 4.09 14.99C3.92 14.7 3.49 14.53 2.9 14.53C1.44 14.53 0.25 13.34 0.25 11.88V10.12C0.25 8.66004 1.44 7.47004 2.9 7.47004C3.49 7.47004 3.92 7.30004 4.09 7.01004C4.26 6.72004 4.19 6.26004 3.89 5.75004C3.54 5.14004 3.45 4.42004 3.63 3.74004C3.81 3.05004 4.25 2.48004 4.87 2.13004L6.6 1.14004C7.73 0.470042 9.22 0.860042 9.9 2.01004L10.02 2.21004C10.61 3.23004 11.42 3.23004 12.01 2.21004L12.12 2.02004C12.8 0.860042 14.29 0.470042 15.43 1.15004L17.15 2.14004C17.76 2.49004 18.2 3.06004 18.39 3.75004C18.57 4.44004 18.48 5.15004 18.13 5.76004C17.84 6.27004 17.76 6.73004 17.93 7.02004C18.1 7.31004 18.53 7.48004 19.12 7.48004C20.58 7.48004 21.77 8.67004 21.77 10.13V11.89C21.77 13.35 20.58 14.54 19.12 14.54C18.53 14.54 18.1 14.71 17.93 15C17.76 15.29 17.83 15.75 18.13 16.26C18.48 16.87 18.58 17.59 18.39 18.27C18.21 18.96 17.77 19.53 17.15 19.88L15.42 20.87C15.04 21.08 14.63 21.19 14.21 21.19ZM11 17.49C11.89 17.49 12.72 18.05 13.29 19.04L13.4 19.23C13.52 19.44 13.72 19.59 13.96 19.65C14.2 19.71 14.44 19.68 14.64 19.56L16.37 18.56C16.63 18.41 16.83 18.16 16.91 17.86C16.99 17.56 16.95 17.25 16.8 16.99C16.23 16.01 16.16 15 16.6 14.23C17.04 13.46 17.95 13.02 19.09 13.02C19.73 13.02 20.24 12.51 20.24 11.87V10.11C20.24 9.48004 19.73 8.96004 19.09 8.96004C17.95 8.96004 17.04 8.52004 16.6 7.75004C16.16 6.98004 16.23 5.97004 16.8 4.99004C16.95 4.73004 16.99 4.42004 16.91 4.12004C16.83 3.82004 16.64 3.58004 16.38 3.42004L14.65 2.43004C14.22 2.17004 13.65 2.32004 13.39 2.76004L13.28 2.95004C12.71 3.94004 11.88 4.50004 10.99 4.50004C10.1 4.50004 9.27 3.94004 8.7 2.95004L8.59 2.75004C8.34 2.33004 7.78 2.18004 7.35 2.43004L5.62 3.43004C5.36 3.58004 5.16 3.83004 5.08 4.13004C5 4.43004 5.04 4.74004 5.19 5.00004C5.76 5.98004 5.83 6.99004 5.39 7.76004C4.95 8.53004 4.04 8.97004 2.9 8.97004C2.26 8.97004 1.75 9.48004 1.75 10.12V11.88C1.75 12.51 2.26 13.03 2.9 13.03C4.04 13.03 4.95 13.47 5.39 14.24C5.83 15.01 5.76 16.02 5.19 17C5.04 17.26 5 17.57 5.08 17.87C5.16 18.17 5.35 18.41 5.61 18.57L7.34 19.56C7.55 19.69 7.8 19.72 8.03 19.66C8.27 19.6 8.47 19.44 8.6 19.23L8.71 19.04C9.28 18.06 10.11 17.49 11 17.49Z" fill="#B7B7B7"/>
</svg>
